<svg width="21" height="24" viewBox="0 0 21 24" fill="none" xmlns="http://www.w3.org/2000/svg">
<path d="M11.1429 20.5714L10.2858 24L13.7143 23.1429L17.8201 19.0371L15.2486 16.4657L11.1429 20.5714ZM18.7543 13.7143C18.5156 13.7141 18.2792 13.7609 18.0586 13.8521C17.838 13.9433 17.6375 14.077 17.4686 14.2457L16.4658 15.2486L19.0372 17.82L20.0401 16.8171C20.2945 16.563 20.4678 16.2391 20.5381 15.8864C20.6083 15.5337 20.5723 15.1681 20.4347 14.8358C20.297 14.5036 20.0638 14.2197 19.7647 14.02C19.4656 13.8204 19.114 13.714 18.7543 13.7143ZM12.8572 5.14286H17.1429L12.0001 0V4.28571C12.0001 4.51304 12.0904 4.73106 12.2511 4.89181C12.4118 5.05255 12.6299 5.14286 12.8572 5.14286Z" fill="#777777"/>
<path d="M16.2857 13.0371C16.5399 12.7861 16.8285 12.5725 17.1429 12.4029V6.85714H12.8571C12.1752 6.85714 11.5211 6.58623 11.0389 6.10399C10.5566 5.62175 10.2857 4.9677 10.2857 4.28571V0H1.71429C1.25963 0 0.823593 0.180612 0.502103 0.502103C0.180612 0.823593 0 1.25963 0 1.71429V22.2857C0 22.7404 0.180612 23.1764 0.502103 23.4979C0.823593 23.8194 1.25963 24 1.71429 24H8.52L9.59143 19.7143L16.2857 13.0371ZM4.28571 6H7.71429C7.94161 6 8.15963 6.09031 8.32038 6.25105C8.48112 6.4118 8.57143 6.62981 8.57143 6.85714C8.57143 7.08447 8.48112 7.30249 8.32038 7.46323C8.15963 7.62398 7.94161 7.71429 7.71429 7.71429H4.28571C4.05839 7.71429 3.84037 7.62398 3.67962 7.46323C3.51888 7.30249 3.42857 7.08447 3.42857 6.85714C3.42857 6.62981 3.51888 6.4118 3.67962 6.25105C3.84037 6.09031 4.05839 6 4.28571 6ZM8.57143 18H4.28571C4.05839 18 3.84037 17.9097 3.67962 17.7489C3.51888 17.5882 3.42857 17.3702 3.42857 17.1429C3.42857 16.9155 3.51888 16.6975 3.67962 16.5368C3.84037 16.376 4.05839 16.2857 4.28571 16.2857H8.57143C8.79876 16.2857 9.01677 16.376 9.17752 16.5368C9.33826 16.6975 9.42857 16.9155 9.42857 17.1429C9.42857 17.3702 9.33826 17.5882 9.17752 17.7489C9.01677 17.9097 8.79876 18 8.57143 18ZM12 14.5714H4.28571C4.05839 14.5714 3.84037 14.4811 3.67962 14.3204C3.51888 14.1596 3.42857 13.9416 3.42857 13.7143C3.42857 13.487 3.51888 13.2689 3.67962 13.1082C3.84037 12.9474 4.05839 12.8571 4.28571 12.8571H12C12.2273 12.8571 12.4453 12.9474 12.6061 13.1082C12.7668 13.2689 12.8571 13.487 12.8571 13.7143C12.8571 13.9416 12.7668 14.1596 12.6061 14.3204C12.4453 14.4811 12.2273 14.5714 12 14.5714ZM12.8571 11.1429H4.28571C4.05839 11.1429 3.84037 11.0526 3.67962 10.8918C3.51888 10.7311 3.42857 10.513 3.42857 10.2857C3.42857 10.0584 3.51888 9.84037 3.67962 9.67962C3.84037 9.51888 4.05839 9.42857 4.28571 9.42857H12.8571C13.0845 9.42857 13.3025 9.51888 13.4632 9.67962C13.624 9.84037 13.7143 10.0584 13.7143 10.2857C13.7143 10.513 13.624 10.7311 13.4632 10.8918C13.3025 11.0526 13.0845 11.1429 12.8571 11.1429Z" fill="#777777"/>
</svg>
