<svg width="24" height="22" viewBox="0 0 24 22" fill="none" xmlns="http://www.w3.org/2000/svg">
<path fill-rule="evenodd" clip-rule="evenodd" d="M6.00012 21.6H4.86762C4.23456 21.6002 3.62365 21.3652 3.1518 20.9399C2.67994 20.5146 2.38028 19.9289 2.31014 19.2949C2.13764 17.7833 1.92764 15.7957 1.80764 14.6922H5.25012L6.00012 21.6ZM16.2825 2.04059V16.8915L6.30011 13.022C6.20431 12.9846 6.10282 12.9641 6.00012 12.9615H0.855151C0.628425 12.9599 0.410973 12.8706 0.247655 12.7121C0.167191 12.6309 0.103803 12.5341 0.0612785 12.4276C0.0187542 12.3212 -0.00203366 12.2071 0.000156733 12.0924V6.04619C-0.000868473 5.93384 0.0205109 5.82243 0.063026 5.71857C0.105541 5.61471 0.168326 5.52051 0.247655 5.44157C0.327018 5.36038 0.421576 5.29586 0.525855 5.25175C0.630133 5.20764 0.742059 5.18482 0.855151 5.1846H6.00012C6.08215 5.19715 6.16559 5.19715 6.24761 5.1846L16.2825 2.04059Z" fill="#777777"/>
<path d="M18 0H20.5725V19.0001H18V0Z" fill="#777777"/>
<path fill-rule="evenodd" clip-rule="evenodd" d="M24 8.63849V10.3692C24 10.8282 23.819 11.2684 23.497 11.593C23.1749 11.9176 22.738 12.0999 22.2825 12.0999V6.91533C22.7367 6.91532 23.1724 7.09663 23.4943 7.41957C23.8162 7.74251 23.998 8.18078 24 8.63849Z" fill="#777777"/>
</svg>
