<svg width="26" height="24" viewBox="0 0 26 24" fill="none" xmlns="http://www.w3.org/2000/svg">
<path d="M25.3486 4.88862C25.672 5.3494 25.8457 5.89858 25.8462 6.46154V21.2308C25.8462 22.7538 24.6 24 23.0769 24H2.76923C1.24615 24 0 22.7538 0 21.2308V6.46154C0 5.87723 0.185539 5.33631 0.497539 4.88862L4.22308 10.7668C4.4757 11.1463 4.81824 11.4575 5.22022 11.6727C5.6222 11.8879 6.07114 12.0003 6.52708 12H9.40154C9.59131 12.5384 9.94302 13.0048 10.4084 13.3354C10.8738 13.6659 11.4301 13.8443 12.0009 13.8462H13.8471C14.4179 13.8443 14.9742 13.6659 15.4396 13.3354C15.905 13.0048 16.2567 12.5384 16.4465 12H19.3209C20.2486 12 21.1098 11.5385 21.6369 10.7492L25.3505 4.88954L25.3486 4.88862ZM12 10.1538C11.4914 10.1538 11.0769 10.5683 11.0769 11.0769C11.0769 11.5855 11.4914 12 12 12H13.8462C14.3548 12 14.7692 11.5855 14.7692 11.0769C14.7692 10.5683 14.3548 10.1538 13.8462 10.1538H12ZM2.00215 3.81508C2.24769 3.74308 2.50154 3.69231 2.76923 3.69231H7.38462V2.76923C7.38462 1.24615 8.63077 0 10.1538 0H15.6923C17.2154 0 18.4615 1.24615 18.4615 2.76923V3.69231H23.0769C23.3446 3.69231 23.5985 3.74308 23.844 3.81508L20.088 9.74308C20.0038 9.86958 19.8896 9.97328 19.7556 10.045C19.6216 10.1166 19.472 10.154 19.32 10.1538H16.4455C16.2558 9.61548 15.9041 9.14902 15.4387 8.81849C14.9733 8.48795 14.417 8.30952 13.8462 8.30769H12C11.4292 8.30952 10.8729 8.48795 10.4075 8.81849C9.94209 9.14902 9.59038 9.61548 9.40062 10.1538H6.52615C6.37768 10.1546 6.23124 10.1193 6.09951 10.0507C5.96779 9.98223 5.85474 9.88265 5.77015 9.76062L2.00215 3.81508ZM9.23077 3.69231H16.6154V2.76923C16.6154 2.26154 16.2 1.84615 15.6923 1.84615H10.1538C9.64615 1.84615 9.23077 2.26154 9.23077 2.76923V3.69231Z" fill="#777777"/>
</svg>
