<svg width="24" height="28" viewBox="0 0 24 28" fill="none" xmlns="http://www.w3.org/2000/svg">
<path d="M1.49777 28C1.09361 28 0.742942 27.8542 0.445765 27.5625C0.148588 27.2708 0 26.9267 0 26.53V22.855C0 20.755 0.665676 18.9 1.99703 17.29C3.32838 15.68 5.04012 14.6533 7.13224 14.21C6.18128 14.8633 5.44428 15.6858 4.92125 16.6775C4.39822 17.6692 4.1367 18.7367 4.1367 19.88V26.53C4.1367 26.7867 4.17236 27.0433 4.24369 27.3C4.31501 27.5567 4.43388 27.79 4.6003 28H1.49777ZM6.73997 28C6.33581 28 5.98514 27.8542 5.68796 27.5625C5.39079 27.2708 5.2422 26.9267 5.2422 26.53V19.88C5.2422 18.2467 5.83061 16.8583 7.00743 15.715C8.18425 14.5717 9.60475 14 11.2689 14H18.0089C19.6731 14 21.0877 14.5717 22.2526 15.715C23.4175 16.8583 24 18.2467 24 19.88V22.12C24 23.7533 23.4175 25.1417 22.2526 26.285C21.0877 27.4283 19.6731 28 18.0089 28H6.73997ZM12.0178 11.06C10.4487 11.06 9.11738 10.5233 8.02377 9.45C6.93016 8.37667 6.38336 7.07 6.38336 5.53C6.38336 3.99 6.93016 2.68333 8.02377 1.61C9.11738 0.536667 10.4487 0 12.0178 0C13.5869 0 14.9183 0.536667 16.0119 1.61C17.1055 2.68333 17.6523 3.99 17.6523 5.53C17.6523 7.07 17.1055 8.37667 16.0119 9.45C14.9183 10.5233 13.5869 11.06 12.0178 11.06Z" fill="#0A5BFF"/>
</svg>
