<svg width="24" height="24" viewBox="0 0 24 24" fill="none" xmlns="http://www.w3.org/2000/svg">
<path d="M7.3125 5.15625C8.73636 5.15625 9.89062 4.00198 9.89062 2.57812C9.89062 1.15427 8.73636 0 7.3125 0C5.88864 0 4.73438 1.15427 4.73438 2.57812C4.73438 4.00198 5.88864 5.15625 7.3125 5.15625Z" fill="#777777"/>
<path d="M14.4628 14.2969H13.9224C13.9229 14.5055 13.9233 14.7063 13.9233 14.812C13.9233 14.9342 13.9241 15.1297 13.925 15.3287C14.1298 15.3277 14.3331 15.327 14.4628 15.327C14.7794 15.327 15.0468 15.0912 15.0468 14.812C15.0468 14.5328 14.7793 14.2969 14.4628 14.2969Z" fill="#777777"/>
<path d="M23.2969 10.7812H0.703125C0.314812 10.7812 0 11.0961 0 11.4844V20.3906C0 20.7789 0.314812 21.0938 0.703125 21.0938H23.2969C23.6852 21.0938 24 20.7789 24 20.3906V11.4844C24 11.0961 23.6852 10.7812 23.2969 10.7812ZM11.2594 18.2812C11.2594 18.6696 10.9446 18.9844 10.5563 18.9844C10.168 18.9844 9.85317 18.6696 9.85317 18.2812V16.5602H8.01562V18.2812C8.01562 18.6696 7.70081 18.9844 7.3125 18.9844C6.92419 18.9844 6.60938 18.6696 6.60938 18.2812V13.5938C6.60938 13.2054 6.92419 12.8906 7.3125 12.8906C7.70081 12.8906 8.01562 13.2054 8.01562 13.5938V15.154H9.85317V13.5938C9.85317 13.2054 10.168 12.8906 10.5563 12.8906C10.9446 12.8906 11.2594 13.2054 11.2594 13.5938V18.2812ZM16.2778 17.8167C16.5344 18.1082 16.506 18.5525 16.2145 18.8091C15.923 19.0656 15.4787 19.0373 15.2222 18.7458L13.9188 17.2649V18.2812C13.9188 18.6696 13.604 18.9844 13.2157 18.9844C12.8273 18.9844 12.5125 18.6696 12.5125 18.2812V13.5938C12.5125 13.2054 12.8273 12.8906 13.2157 12.8906L13.2164 12.8907L13.2172 12.8906H14.4628C15.5603 12.8906 16.4531 13.7526 16.4531 14.812C16.4531 15.619 15.9347 16.311 15.2026 16.5951L16.2778 17.8167ZM12.2344 9.375V8.67188C12.2344 7.21308 11.4458 5.93555 10.2731 5.24133C9.54323 6.05184 8.48648 6.5625 7.3125 6.5625C6.13852 6.5625 5.08177 6.05184 4.35192 5.24133C3.17916 5.93555 2.39062 7.21308 2.39062 8.67188V9.375H12.2344ZM21.0073 9.375L22.4966 5.65177C22.6813 5.18991 22.3412 4.6875 21.8438 4.6875H16.6875C16.547 4.6875 16.4097 4.72961 16.2933 4.80839C16.177 4.88717 16.0869 4.99901 16.0347 5.12948L14.3365 9.375H21.0073ZM2.85938 24H4.26562C4.65394 24 4.96875 23.6852 4.96875 23.2969V22.5H2.15625V23.2969C2.15625 23.6852 2.47106 24 2.85938 24ZM19.7344 24H21.1406C21.5289 24 21.8438 23.6852 21.8438 23.2969V22.5H19.0312V23.2969C19.0312 23.6852 19.3461 24 19.7344 24Z" fill="#777777"/>
</svg>
