<svg width="24" height="22" viewBox="0 0 24 22" fill="none" xmlns="http://www.w3.org/2000/svg">
<path d="M20.5355 11.6614H18.6794C18.8686 12.211 18.972 12.804 18.972 13.4222V20.8647C18.972 21.1225 18.9297 21.3698 18.8528 21.5999H21.9213C23.0675 21.5999 24 20.6105 24 19.3944V15.3372C24 13.3104 22.4459 11.6614 20.5355 11.6614ZM5.02806 13.4222C5.02806 12.804 5.13142 12.211 5.3206 11.6615H3.46454C1.55419 11.6615 0 13.3104 0 15.3373V19.3945C0 20.6106 0.932486 21.6 2.07872 21.6H5.14726C5.06828 21.3639 5.02797 21.1153 5.02806 20.8648V13.4222ZM14.1216 9.74645H9.87841C7.96806 9.74645 6.41387 11.3954 6.41387 13.4222V20.8648C6.41387 21.2708 6.72409 21.6 7.10678 21.6H16.8933C17.276 21.6 17.5862 21.2708 17.5862 20.8648V13.4222C17.5862 11.3954 16.032 9.74645 14.1216 9.74645ZM12 0C9.70258 0 7.83348 1.98306 7.83348 4.42063C7.83348 6.07401 8.6936 7.51801 9.96382 8.27614C10.5663 8.63571 11.2609 8.84121 12 8.84121C12.7392 8.84121 13.4337 8.63571 14.0362 8.27614C15.3065 7.51801 16.1666 6.07396 16.1666 4.42063C16.1666 1.98311 14.2975 0 12 0ZM4.68367 4.12034C2.96546 4.12034 1.56764 5.60338 1.56764 7.42635C1.56764 9.24932 2.96546 10.7324 4.68367 10.7324C5.1059 10.7327 5.52375 10.6416 5.91156 10.4644C6.5634 10.1666 7.10087 9.63958 7.43345 8.97937C7.67438 8.50166 7.80019 7.96815 7.79969 7.42635C7.79969 5.60343 6.40187 4.12034 4.68367 4.12034ZM19.3164 4.12034C17.5982 4.12034 16.2004 5.60338 16.2004 7.42635C16.1998 7.96815 16.3257 8.50167 16.5666 8.97937C16.8992 9.63963 17.4366 10.1667 18.0885 10.4644C18.4763 10.6416 18.8941 10.7327 19.3164 10.7324C21.0346 10.7324 22.4324 9.24932 22.4324 7.42635C22.4324 5.60338 21.0346 4.12034 19.3164 4.12034Z" fill="#777777"/>
</svg>
