<svg width="24" height="24" viewBox="0 0 24 24" fill="none" xmlns="http://www.w3.org/2000/svg">
<path d="M18.8572 0H8.57146V1.71429C8.57146 2.05529 8.436 2.38231 8.19488 2.62343C7.95376 2.86455 7.62674 3.00001 7.28574 3.00001H5.57145V14.8286L5.57745 14.8261C6.26282 14.5773 7.00013 14.5065 7.72031 14.6203L16.0346 16.0402L16.0655 16.0441L16.7983 16.1684C17.0921 16.2153 17.3621 16.358 17.5664 16.5742C17.7707 16.7904 17.8979 17.0681 17.9281 17.3641L19.2858 16.5961V11.4245L17.8286 12.8816C17.7814 12.9285 17.7241 12.9638 17.6611 12.9849L15.5971 13.6732C15.5219 13.6976 15.4434 13.7105 15.3643 13.7113C15.3596 13.7113 15.3562 13.7139 15.3515 13.7139H7.28574C7.17208 13.7139 7.06307 13.6688 6.9827 13.5884C6.90232 13.508 6.85717 13.399 6.85717 13.2853C6.85717 13.1717 6.90232 13.0627 6.9827 12.9823C7.06307 12.9019 7.17208 12.8568 7.28574 12.8568H14.5805C14.585 12.7996 14.5956 12.7432 14.6122 12.6883L15.3001 10.6252C15.3212 10.5621 15.3565 10.5048 15.4033 10.4576L19.2858 6.57603V0.428573C19.2858 0.314908 19.2406 0.205899 19.1603 0.125526C19.0799 0.0451531 18.9709 0 18.8572 0ZM7.28574 8.57146H10.7143C10.828 8.57146 10.937 8.61661 11.0174 8.69699C11.0977 8.77736 11.1429 8.88637 11.1429 9.00004C11.1429 9.1137 11.0977 9.22271 11.0174 9.30308C10.937 9.38346 10.828 9.42861 10.7143 9.42861H7.28574C7.17208 9.42861 7.06307 9.38346 6.9827 9.30308C6.90232 9.22271 6.85717 9.1137 6.85717 9.00004C6.85717 8.88637 6.90232 8.77736 6.9827 8.69699C7.06307 8.61661 7.17208 8.57146 7.28574 8.57146ZM6.85717 6.85717C6.85717 6.74351 6.90232 6.6345 6.9827 6.55412C7.06307 6.47375 7.17208 6.4286 7.28574 6.4286H8.14289C8.25655 6.4286 8.36556 6.47375 8.44594 6.55412C8.52631 6.6345 8.57146 6.74351 8.57146 6.85717C8.57146 6.97083 8.52631 7.07984 8.44594 7.16022C8.36556 7.24059 8.25655 7.28574 8.14289 7.28574H7.28574C7.17208 7.28574 7.06307 7.24059 6.9827 7.16022C6.90232 7.07984 6.85717 6.97083 6.85717 6.85717ZM13.2858 11.5715H7.28574C7.17208 11.5715 7.06307 11.5263 6.9827 11.4459C6.90232 11.3656 6.85717 11.2566 6.85717 11.1429C6.85717 11.0292 6.90232 10.9202 6.9827 10.8399C7.06307 10.7595 7.17208 10.7143 7.28574 10.7143H13.2858C13.3994 10.7143 13.5084 10.7595 13.5888 10.8399C13.6692 10.9202 13.7143 11.0292 13.7143 11.1429C13.7143 11.2566 13.6692 11.3656 13.5888 11.4459C13.5084 11.5263 13.3994 11.5715 13.2858 11.5715ZM15.0001 9.42861H12.4286C12.315 9.42861 12.2059 9.38346 12.1256 9.30308C12.0452 9.22271 12 9.1137 12 9.00004C12 8.88637 12.0452 8.77736 12.1256 8.69699C12.2059 8.61661 12.315 8.57146 12.4286 8.57146H15.0001C15.1137 8.57146 15.2227 8.61661 15.3031 8.69699C15.3835 8.77736 15.4286 8.88637 15.4286 9.00004C15.4286 9.1137 15.3835 9.22271 15.3031 9.30308C15.2227 9.38346 15.1137 9.42861 15.0001 9.42861ZM17.1429 7.28574H9.85718C9.74352 7.28574 9.63451 7.24059 9.55413 7.16022C9.47376 7.07984 9.42861 6.97083 9.42861 6.85717C9.42861 6.74351 9.47376 6.6345 9.55413 6.55412C9.63451 6.47375 9.74352 6.4286 9.85718 6.4286H17.1429C17.2566 6.4286 17.3656 6.47375 17.446 6.55412C17.5263 6.6345 17.5715 6.74351 17.5715 6.85717C17.5715 6.97083 17.5263 7.07984 17.446 7.16022C17.3656 7.24059 17.2566 7.28574 17.1429 7.28574ZM17.5715 5.14288H7.28574C7.17208 5.14288 7.06307 5.09772 6.9827 5.01735C6.90232 4.93698 6.85717 4.82797 6.85717 4.7143C6.85717 4.60064 6.90232 4.49163 6.9827 4.41126C7.06307 4.33088 7.17208 4.28573 7.28574 4.28573H17.5715C17.6852 4.28573 17.7942 4.33088 17.8745 4.41126C17.9549 4.49163 18.0001 4.60064 18.0001 4.7143C18.0001 4.82797 17.9549 4.93698 17.8745 5.01735C17.7942 5.09772 17.6852 5.14288 17.5715 5.14288Z" fill="#777777"/>
<path d="M15.4745 12.8113L16.7353 12.3905L15.8953 11.5505L15.4745 12.8113ZM7.71431 1.71429V0.606002L6.17745 2.14287H7.28574C7.39941 2.14287 7.50842 2.09771 7.58879 2.01734C7.66916 1.93697 7.71431 1.82796 7.71431 1.71429ZM0.428573 22.2858H2.57144C2.6851 22.2858 2.79411 22.2406 2.87449 22.1603C2.95486 22.0799 3.00001 21.9709 3.00001 21.8572L2.99573 16.2219C2.99573 16.2121 2.99915 16.2031 3.00001 16.1932V15.8572C3.00001 15.7435 2.95486 15.6345 2.87449 15.5542C2.79411 15.4738 2.6851 15.4286 2.57144 15.4286H0.428573C0.314908 15.4286 0.205899 15.4738 0.125526 15.5542C0.0451531 15.6345 0 15.7435 0 15.8572V21.8572C0 21.9709 0.0451531 22.0799 0.125526 22.1603C0.205899 22.2406 0.314908 22.2858 0.428573 22.2858ZM1.28572 16.2858H1.71429C1.82796 16.2858 1.93697 16.3309 2.01734 16.4113C2.09771 16.4917 2.14287 16.6007 2.14287 16.7143C2.14287 16.828 2.09771 16.937 2.01734 17.0174C1.93697 17.0978 1.82796 17.1429 1.71429 17.1429H1.28572C1.17205 17.1429 1.06305 17.0978 0.982672 17.0174C0.902299 16.937 0.857146 16.828 0.857146 16.7143C0.857146 16.6007 0.902299 16.4917 0.982672 16.4113C1.06305 16.3309 1.17205 16.2858 1.28572 16.2858ZM1.28572 20.5715H1.71429C1.82796 20.5715 1.93697 20.6167 2.01734 20.697C2.09771 20.7774 2.14287 20.8864 2.14287 21.0001C2.14287 21.1137 2.09771 21.2228 2.01734 21.3031C1.93697 21.3835 1.82796 21.4287 1.71429 21.4287H1.28572C1.17205 21.4287 1.06305 21.3835 0.982672 21.3031C0.902299 21.2228 0.857146 21.1137 0.857146 21.0001C0.857146 20.8864 0.902299 20.7774 0.982672 20.697C1.06305 20.6167 1.17205 20.5715 1.28572 20.5715ZM13.8618 19.6612L15.2846 18.8572H12.1518L13.4572 19.6676C13.5198 19.7003 13.5896 19.7169 13.6603 19.7158C13.7309 19.7146 13.8002 19.6959 13.8618 19.6612Z" fill="#777777"/>
<path d="M16.9376 17.8518C16.983 17.8058 17.0187 17.7513 17.0429 17.6914C17.0671 17.6316 17.0793 17.5675 17.0786 17.5029C17.0773 17.3849 17.0344 17.2711 16.9575 17.1815C16.8807 17.0919 16.7747 17.0323 16.6582 17.0131L15.9455 16.8922C15.9343 16.8922 15.9228 16.8896 15.9138 16.8879L7.58231 15.4651C7.01465 15.3746 6.43334 15.4285 5.89202 15.6219L3.85716 16.5001V21.0815H3.86873C4.03731 21.0813 4.20493 21.1068 4.36587 21.1569L13.0908 23.9478C13.2865 24.0052 13.4931 24.0154 13.6936 23.9776C13.8941 23.9398 14.0827 23.8549 14.2441 23.7301L23.3804 16.4053C23.474 16.3315 23.5383 16.2268 23.5619 16.1099C23.5854 15.993 23.5667 15.8715 23.5089 15.7672C23.4442 15.6529 23.337 15.5687 23.2105 15.5328C23.0841 15.497 22.9487 15.5123 22.8335 15.5756L14.2809 20.4091C14.0883 20.5166 13.8713 20.5728 13.6507 20.5722C13.4301 20.5716 13.2134 20.5142 13.0213 20.4057L10.5275 18.8572H8.93575C8.82208 18.8572 8.71307 18.8121 8.6327 18.7317C8.55233 18.6513 8.50718 18.5423 8.50718 18.4286C8.50718 18.315 8.55233 18.206 8.6327 18.1256C8.71307 18.0452 8.82208 18.0001 8.93575 18.0001H16.5815C16.7151 17.9994 16.843 17.9461 16.9376 17.8518ZM16.3128 10.7593L20.3606 6.71145L21.5727 7.92346L17.5248 11.9713L16.3128 10.7593ZM20.9667 6.10588L21.5727 5.49988L22.7847 6.71188L22.1787 7.31789L20.9667 6.10588ZM23.2685 4.4113C23.1881 4.33096 23.0792 4.28582 22.9655 4.28582C22.8519 4.28582 22.7429 4.33096 22.6625 4.4113L22.1817 4.89216L23.3941 6.10417L23.8745 5.62331C23.9549 5.54294 24 5.43395 24 5.32031C24 5.20666 23.9549 5.09767 23.8745 5.01731L23.2685 4.4113Z" fill="#777777"/>
</svg>
