<svg width="24" height="22" viewBox="0 0 24 22" fill="none" xmlns="http://www.w3.org/2000/svg">
<path fill-rule="evenodd" clip-rule="evenodd" d="M14.986 2.84589C11.223 7.20502 4.248 8.61852 4.248 8.61852C3.99101 8.6702 3.71841 8.63955 3.49018 8.53331C3.37717 8.4807 3.27845 8.41113 3.19967 8.32855C3.12088 8.24597 3.06357 8.152 3.031 8.05202C2.99843 7.95204 2.99125 7.84799 3.00986 7.74583C3.02846 7.64367 3.0725 7.54538 3.13945 7.45659C3.27466 7.27726 3.49501 7.14749 3.752 7.09581C3.752 7.09581 10.394 5.77345 13.641 1.58482L11.674 1.57146C11.4088 1.56958 11.1554 1.485 10.9695 1.33633C10.7837 1.18765 10.6806 0.987058 10.683 0.778674C10.6854 0.570289 10.793 0.371185 10.9823 0.225162C11.1715 0.0791381 11.4268 -0.00184359 11.692 3.18639e-05L15.972 0.029889C16.2343 0.0313294 16.4853 0.113827 16.6707 0.25954C16.8562 0.405252 16.9612 0.602467 16.963 0.808531L17 4.0936C17.0024 4.30198 16.8993 4.50258 16.7135 4.65125C16.5276 4.79993 16.2742 4.88451 16.009 4.88638C15.7438 4.88826 15.4885 4.80728 15.2993 4.66125C15.11 4.51523 15.0024 4.31612 15 4.10774L14.986 2.84589ZM6.485 22H2C1.46957 22 0.960859 21.8344 0.585786 21.5397C0.210714 21.245 0 20.8453 0 20.4286V13.3572C0 12.9404 0.210714 12.5407 0.585786 12.246C0.960859 11.9513 1.46957 11.7857 2 11.7857H6.485V22ZM8.485 11.0275C8.485 10.1444 9.396 9.42859 10.52 9.42859H13.397C14.521 9.42859 15.432 10.1444 15.432 11.0275V22H8.485V11.0275ZM17.432 7.88466C17.432 7.00152 18.343 6.28574 19.466 6.28574H22C22.5304 6.28574 23.0391 6.4513 23.4142 6.746C23.7893 7.0407 24 7.4404 24 7.85716V20.4286C24 20.8453 23.7893 21.245 23.4142 21.5397C23.0391 21.8344 22.5304 22 22 22H17.432V7.88466Z" fill="#777777"/>
</svg>
