<svg width="24" height="24" viewBox="0 0 24 24" fill="none" xmlns="http://www.w3.org/2000/svg">
<path d="M23.4127 22.9475C23.4744 23.0792 23.4076 23.2345 23.2638 23.291C20.9372 24.2462 18.8776 23.818 17.5166 22.2558C16.6383 21.2676 16.0631 21.3946 15.3543 22.444C14.2757 24.1474 12.5038 24.458 10.5675 23.3474L11.1582 23.0463C12.0775 23.4933 12.8839 23.5921 13.5464 23.3427C14.8253 22.9098 14.964 21.2205 16.361 21.0558C17.0543 21.0041 17.4857 21.437 17.948 21.8981C18.3075 22.2652 18.7184 22.6745 19.3347 22.9569C20.3517 23.418 21.5946 23.371 23.0429 22.8063C23.1816 22.7498 23.3511 22.811 23.4127 22.9475ZM9.61221 19.2301L9.19619 19.5642L11.5947 22.0769L12.0056 21.7428C12.2727 21.5311 12.3035 21.1547 12.0672 20.91L10.5161 19.2865C10.285 19.0419 9.87928 19.0136 9.61221 19.2301ZM2.12901 11.3765L1.71299 11.7106L4.10638 14.2234L4.5224 13.8893C4.78947 13.6775 4.82029 13.3011 4.58403 13.0564L3.03295 11.433C2.81723 11.1883 2.38581 11.16 2.12901 11.3765ZM8.88289 20.0347C8.43092 20.9335 7.05446 21.2535 6.19674 20.6417C4.68675 19.6301 3.41815 18.2984 2.52962 16.7926C1.9852 15.9315 2.51934 14.7269 3.55169 14.4351C3.13567 13.9928 1.7284 12.5199 1.2867 12.0541C0.0232321 13.1928 -0.33629 14.9245 0.326258 16.435C1.3586 19.1595 3.47465 21.3805 6.28406 22.6887C7.83 23.498 9.75088 23.3992 11.153 22.411C10.7678 22.0111 9.29891 20.4676 8.88289 20.0347ZM12.6938 6.02156V6.00745C12.6836 5.70629 12.6681 5.59336 12.5397 5.30161C12.4011 5.52748 12.4524 5.87099 12.6938 6.02156ZM20.9012 5.66394C20.8961 5.77688 20.8909 5.88981 20.8807 6.00745C21.0142 5.91334 21.0861 5.74864 21.0861 5.59806C21.0861 5.53689 21.081 5.48513 21.0656 5.43337C21.0142 5.50866 20.9577 5.58395 20.9012 5.66394ZM17.799 3.13706C17.9993 3.01471 18.2151 2.84531 18.4462 2.90648C18.7338 2.98177 18.7698 3.32998 18.8725 3.58408C19.1498 4.28992 20.1513 4.51108 20.5982 5.13221C21.6305 3.10412 21.4867 0.671342 18.6054 0.290191C17.6501 0.0972631 16.6743 -0.0439038 15.6984 0.012563C12.8171 0.012563 12.4165 2.96295 13.0482 4.97222C15.683 1.7395 15.8114 4.14405 17.799 3.13706ZM19.9305 5.48984C19.9921 5.47101 20.0589 5.4569 20.1205 5.43808C19.5299 4.78871 18.3691 4.4452 18.2459 3.5088C17.6655 3.89465 16.89 4.02641 16.1966 3.85701C15.9552 3.79583 15.7087 3.70172 15.457 3.72525C15.2362 3.74407 15.0359 3.85701 14.8612 3.97935C14.4093 4.28051 13.5464 4.90635 13.454 5.43337C13.4694 5.44278 13.608 5.49925 13.6132 5.48984C13.757 5.24044 14.1268 5.2075 14.4349 5.2075C14.8458 5.21221 15.2567 5.21221 15.6727 5.21221C15.9963 5.21691 16.3969 5.26868 16.4894 5.55101H17.0543C17.1879 5.24985 17.6193 5.2028 17.9737 5.2028C18.4462 5.21221 18.9136 5.18868 19.3809 5.21691C19.6018 5.24985 19.8175 5.31573 19.9305 5.48984ZM14.1576 5.73923C14.1165 5.73923 14.0754 5.77217 14.0754 5.81452V6.11097C14.0754 6.59094 14.5017 6.9815 15.0256 6.9815C15.5495 6.9815 15.9758 6.59094 15.9758 6.11097V5.81452C15.9758 5.77688 15.9398 5.73923 15.8936 5.73923H14.1576ZM17.6347 5.73923C17.5936 5.73923 17.5576 5.77217 17.5525 5.80981V6.11097C17.5525 6.59094 17.9788 6.9815 18.5027 6.9815C19.0266 6.9815 19.4528 6.59094 19.4528 6.11097V5.81452C19.4528 5.77688 19.4169 5.73923 19.3707 5.73923H17.6347ZM15.9449 9.19311C18.1842 9.7766 20.1719 7.94614 20.3054 5.93216L20.0229 6.00745C20.0794 7.94143 17.0132 8.01202 16.9773 6.07803H16.551C16.515 8.01202 13.4437 7.94614 13.5053 6.00745L13.2639 5.93686C13.4026 7.42853 14.4093 8.78373 15.9449 9.19311ZM16.7872 16.4209L17.6141 15.1786L16.7872 12.2564L15.9603 15.1786L16.7872 16.4209ZM17.4395 9.7719C17.003 9.84248 16.551 9.83778 16.1093 9.76719C16.099 9.84248 16.0733 10.0966 16.0631 10.1813L16.777 10.8354L16.7975 10.8165L17.4857 10.1813L17.4395 9.7719ZM15.6008 11.2918L16.248 11.0989L15.647 10.5483C15.4108 10.5813 15.1643 10.6189 14.9331 10.6801L15.6008 11.2918ZM18.6157 10.6848C18.3846 10.6236 18.138 10.5718 17.8966 10.553L17.2957 11.0989L17.948 11.2918L18.6157 10.6848ZM18.7287 9.31075C18.554 9.40957 18.3178 9.47545 18.1586 9.58838C17.9685 9.72955 18.0148 9.78131 18.0404 10.0354C20.6649 10.3224 22.7502 12.5717 22.6372 14.9904C24.82 12.2941 24.3269 8.25671 21.5432 6.06862C21.3943 6.34154 21.0964 6.55329 20.7677 6.60976C20.6701 7.70145 19.684 8.72726 18.7287 9.31075ZM22.0671 15.6303V14.8633C22.0671 13.1128 20.9526 11.5694 19.2166 10.8824L18.3435 11.6824C18.2407 11.7765 18.1072 11.8282 17.9685 11.8282C17.8453 11.8423 17.3317 11.6541 17.2084 11.6259L18.2048 15.1551C18.2253 15.2256 18.2099 15.2962 18.1688 15.3574L17.0338 17.0655C16.9824 17.1408 16.89 17.1926 16.7924 17.1926C16.6897 17.1926 16.5972 17.1408 16.5459 17.0655L15.4108 15.3574C15.3697 15.2962 15.3594 15.2256 15.38 15.1551L16.3764 11.6165C16.2531 11.6447 15.7087 11.8423 15.5905 11.8282C15.4519 11.8282 15.3132 11.7765 15.2156 11.6824L14.3374 10.8824C12.8787 11.4518 11.7591 12.7458 11.5382 14.2045C11.456 14.6139 11.492 15.3056 11.4817 15.7338C14.25 18.4631 19.3604 18.416 22.0671 15.6303ZM9.89469 13.5458C9.19105 14.4633 8.0868 15.1598 7.35235 16.0632C7.65024 16.0679 10.9219 15.555 10.9219 15.4939C10.5367 12.9152 12.6836 10.346 15.5084 10.026C15.5238 9.89424 15.5392 9.76249 15.5495 9.63073C14.2552 9.16959 13.2331 8.11554 12.889 6.88268C12.8633 6.79798 12.8428 6.69917 12.7709 6.63799C12.4422 6.48271 12.1186 6.36037 11.9748 6.01215C9.54544 7.91791 8.89316 10.8354 9.89469 13.5458ZM6.12998 7.27795C6.22756 7.39088 6.40732 7.40971 6.53059 7.3203C6.65385 7.2309 6.67439 7.0662 6.57681 6.95327C6.19674 6.51565 5.63178 6.26155 5.01546 6.26155C4.40427 6.26155 3.8393 6.51094 3.45924 6.94856C3.36165 7.06149 3.3822 7.22619 3.50546 7.3203C3.62873 7.40971 3.80849 7.39088 3.91121 7.27795C4.17828 6.96738 4.58403 6.79328 5.01546 6.79328C5.45716 6.78387 5.8629 6.96268 6.12998 7.27795ZM7.67078 5.89452C7.92245 6.14862 8.34874 5.7957 8.09708 5.5416C6.53572 3.89465 3.52087 3.88995 1.95952 5.53689C1.70785 5.79099 2.12901 6.14391 2.38581 5.88981C3.72631 4.47344 6.32514 4.47814 7.67078 5.89452ZM0.706324 4.3605C2.92509 2.09242 7.12123 2.09713 9.34 4.36521C9.5968 4.6146 10.018 4.25698 9.76115 4.00758C7.32667 1.51834 2.72479 1.51834 0.290306 4.00288C0.0386402 4.25227 0.444387 4.6146 0.706324 4.3605ZM5.02573 9.1837C4.09097 9.16018 4.09097 7.9085 5.02573 7.88967C5.96049 7.9085 5.95535 9.16018 5.02573 9.1837ZM5.02573 8.65668C5.19522 8.65668 5.20035 8.41199 5.02573 8.41199C4.8511 8.41199 4.8511 8.66139 5.02573 8.65668Z" fill="#777777"/>
</svg>
