<svg width="24" height="24" viewBox="0 0 24 24" fill="none" xmlns="http://www.w3.org/2000/svg">
<path d="M13.523 3.0829L14.1499 2.47712L14.6925 3.14779C14.7094 3.16842 16.3697 5.16492 19.2646 5.69009C18.7014 2.46868 15.6585 0 12 0C8.96402 0 6.35214 1.70024 5.22926 4.11973L7.2889 6.01424C8.56736 5.77473 9.79887 5.36134 10.9727 4.77475C12.6094 3.95698 13.5141 3.09152 13.523 3.0829ZM10.7771 15.3266C11.9136 15.7257 12.8333 15.7422 13.2373 15.3707L14.2677 14.4229L12.221 12.5403L10.8637 13.7888L10.3472 13.49C9.44147 12.966 8.56599 12.3174 7.74484 11.5622C6.90968 10.794 6.19528 9.97507 5.62138 9.12823L5.29997 8.65398L6.64791 7.41411L4.60122 5.53146L3.54023 6.50739C2.72143 7.34898 3.82555 10.1407 6.54106 12.6386C7.90211 13.8905 9.4065 14.8451 10.7771 15.3266Z" fill="#777777"/>
<path d="M19.3466 7.13075C16.6888 6.76332 14.8731 5.37471 14.0193 4.56908C13.5364 4.94285 12.7763 5.46881 11.7615 5.98137C10.9361 6.39823 9.85434 6.84636 8.55161 7.17576L8.81073 7.41411L7.25184 8.84801C7.70049 9.4408 8.22826 10.0174 8.82628 10.5675C9.41155 11.1058 10.0252 11.5827 10.6563 11.9901L12.221 10.5509L14.8793 12.9961C17.3951 12.0083 19.1945 9.76744 19.3466 7.13075Z" fill="#777777"/>
<path d="M18.1225 12.6886C17.4998 13.2339 16.7946 13.6937 16.029 14.0537L16.4305 14.4229L14.3187 16.3654C13.8277 16.817 13.1499 17.0445 12.3339 17.0445C11.7073 17.0445 10.9993 16.9105 10.2315 16.6407C8.66422 16.0902 6.96953 15.0221 5.45968 13.6333C5.18375 13.3795 4.91697 13.1175 4.65979 12.8477C1.98761 13.4543 0 15.6774 0 18.3201V24H24V18.3201C24 15.2892 21.3857 12.8099 18.1225 12.6886ZM12.768 21.932H11.232V20.5191H12.768V21.932ZM12.768 19.3999H11.232V17.987H12.768V19.3999Z" fill="#777777"/>
</svg>
