<svg width="24" height="24" viewBox="0 0 24 24" fill="none" xmlns="http://www.w3.org/2000/svg">
<path d="M11.4419 12.2791C14.8326 12.2791 17.5814 9.53031 17.5814 6.13953C17.5814 2.74876 14.8326 0 11.4419 0C8.05109 0 5.30233 2.74876 5.30233 6.13953C5.30233 9.53031 8.05109 12.2791 11.4419 12.2791Z" fill="#777777"/>
<path fill-rule="evenodd" clip-rule="evenodd" d="M13.0326 22.8971C11.8291 21.6081 11.1607 19.9097 11.1628 18.1462C11.1628 16.2675 11.9074 14.5607 13.1174 13.306C12.5704 13.2636 12.0112 13.2413 11.4419 13.2413C7.73358 13.2413 4.45061 14.1689 2.41228 15.5587C0.857305 16.6192 2.96559e-06 17.9665 2.96559e-06 19.3808V20.9994C-0.000438197 21.2488 0.0483455 21.4957 0.143556 21.7262C0.238767 21.9566 0.378532 22.166 0.554835 22.3423C0.731138 22.5186 0.940512 22.6583 1.17095 22.7536C1.40138 22.8488 1.64835 22.8976 1.89768 22.8971H13.0326Z" fill="#777777"/>
<path fill-rule="evenodd" clip-rule="evenodd" d="M18.1395 12.2858C14.9046 12.2858 12.2791 14.9113 12.2791 18.1462C12.2791 21.3812 14.9046 24.0067 18.1395 24.0067C21.3745 24.0067 24 21.3812 24 18.1462C24 14.9113 21.3745 12.2858 18.1395 12.2858ZM17.3023 18.1462V20.9369C17.3023 21.159 17.3905 21.3719 17.5475 21.5289C17.7045 21.6859 17.9175 21.7741 18.1395 21.7741C18.3616 21.7741 18.5745 21.6859 18.7315 21.5289C18.8885 21.3719 18.9767 21.159 18.9767 20.9369V18.1462C18.9767 17.9242 18.8885 17.7112 18.7315 17.5542C18.5745 17.3972 18.3616 17.309 18.1395 17.309C17.9175 17.309 17.7045 17.3972 17.5475 17.5542C17.3905 17.7112 17.3023 17.9242 17.3023 18.1462ZM18.1395 14.5183C18.4356 14.5183 18.7195 14.6359 18.9289 14.8453C19.1382 15.0546 19.2558 15.3385 19.2558 15.6346C19.2558 15.9307 19.1382 16.2146 18.9289 16.4239C18.7195 16.6333 18.4356 16.7509 18.1395 16.7509C17.8435 16.7509 17.5595 16.6333 17.3502 16.4239C17.1409 16.2146 17.0233 15.9307 17.0233 15.6346C17.0233 15.3385 17.1409 15.0546 17.3502 14.8453C17.5595 14.6359 17.8435 14.5183 18.1395 14.5183Z" fill="#777777"/>
</svg>
