<svg width="25" height="30" viewBox="0 0 25 30" fill="none" xmlns="http://www.w3.org/2000/svg">
<path d="M7.45331 18.0676C7.84525 18.8225 8.34142 19.5186 8.92724 20.1353C7.97574 19.7872 7.08059 19.3011 6.27054 18.6925C6.65445 18.4652 7.04917 18.2567 7.45331 18.0676ZM11.9791 20.7295V16.9166C10.7583 16.9736 9.55425 17.2232 8.41149 17.6564C9.33848 19.37 10.5883 20.5054 11.9791 20.729V20.7295ZM16.5885 17.6564C15.4458 17.2232 14.2417 16.9736 13.0209 16.9166V20.729C14.4117 20.5054 15.6615 19.37 16.5885 17.6564ZM16.0728 20.1353C17.0243 19.7872 17.9194 19.3011 18.7295 18.6925C18.3456 18.4652 17.9508 18.2566 17.5467 18.0676C17.1547 18.8225 16.6586 19.5186 16.0728 20.1353ZM18.2241 10.8852H13.0209V15.8591C14.3988 15.9232 15.7569 16.2117 17.0419 16.7133C17.7905 14.8597 18.1913 12.884 18.2241 10.8852ZM22.8908 10.8852H19.2655C19.2362 13.0259 18.8072 15.1424 18.0006 17.1256C18.5427 17.3799 19.068 17.6687 19.5733 17.9902C21.5661 16.1473 22.7573 13.5967 22.8913 10.8857L22.8908 10.8852ZM19.2655 9.84382H22.8908C22.7568 7.13279 21.5656 4.58225 19.5727 2.73936C19.0675 3.06081 18.5422 3.3496 18 3.60396C18.8067 5.58696 19.2359 7.70321 19.2655 9.84382ZM18.7289 2.03645C17.9191 1.42793 17.0241 0.941822 16.0728 0.593728C16.6586 1.21043 17.1548 1.90646 17.5467 2.66138C17.974 2.45861 18.3749 2.25013 18.7289 2.03645ZM17.0419 4.01572C15.7569 4.51727 14.3988 4.80579 13.0209 4.86992V9.84382H18.2241C18.1913 7.845 17.7905 5.86932 17.0419 4.01572ZM11.9791 4.86992C10.6012 4.80579 9.24306 4.51727 7.95814 4.01572C7.20946 5.86932 6.80869 7.845 6.77588 9.84382H11.9791V4.86992ZM11.9791 10.8852H6.77588C6.80869 12.884 7.20946 14.8597 7.95814 16.7133C9.24306 16.2117 10.6012 15.9232 11.9791 15.8591V10.8852ZM6.99996 17.1256C6.19325 15.1426 5.76408 13.0263 5.73452 10.8857H2.10925C2.24324 13.5967 3.43442 16.1473 5.42726 17.9902C5.93251 17.6687 6.45782 17.3799 6.99996 17.1256ZM6.99996 3.60448C6.45782 3.35012 5.93251 3.06133 5.42726 2.73988C3.43442 4.58277 2.24324 7.13331 2.10925 9.84434H5.73452C5.76409 7.70373 6.19327 5.58748 6.99996 3.60448ZM8.92724 0.594248C7.97572 0.942296 7.08058 1.42841 6.27054 2.03697C6.62511 2.25013 7.02596 2.45861 7.45331 2.6619C7.84525 1.90698 8.34141 1.21095 8.92724 0.594248ZM11.9791 3.81296V0C10.5883 0.223558 9.33848 1.35954 8.41149 3.07262C9.55424 3.50577 10.7583 3.75598 11.9791 3.81296ZM13.0209 0V3.81244C14.2417 3.75563 15.4457 3.50611 16.5885 3.07314C15.6615 1.35954 14.4117 0.223558 13.0209 0ZM23.4377 25.0208V23.6456C23.4373 23.5076 23.3823 23.3753 23.2847 23.2777C23.1871 23.1801 23.0548 23.1251 22.9167 23.1247H13.0209V21.8125C12.8494 21.8177 12.6773 21.8229 12.5 21.8229C12.3227 21.8229 12.1511 21.8177 11.9791 21.8073V23.1247H2.08325C1.94522 23.1251 1.81295 23.1801 1.71534 23.2777C1.61774 23.3753 1.56272 23.5076 1.56231 23.6456V25.0208C1.07138 25.1476 0.643546 25.4491 0.358995 25.8687C0.0744442 26.2884 -0.0472874 26.7974 0.0166176 27.3004C0.0805226 27.8034 0.325677 28.2658 0.706129 28.601C1.08658 28.9362 1.57621 29.1211 2.08325 29.1211C2.59029 29.1211 3.07992 28.9362 3.46037 28.601C3.84082 28.2658 4.08598 27.8034 4.14988 27.3004C4.21379 26.7974 4.09206 26.2884 3.80751 25.8687C3.52296 25.4491 3.09512 25.1476 2.60419 25.0208V24.1666H11.9791V25.0208C11.4881 25.1476 11.0603 25.4491 10.7757 25.8687C10.4912 26.2884 10.3695 26.7974 10.4334 27.3004C10.4973 27.8034 10.7424 28.2658 11.1229 28.601C11.5033 28.9362 11.993 29.1211 12.5 29.1211C13.007 29.1211 13.4967 28.9362 13.8771 28.601C14.2576 28.2658 14.5027 27.8034 14.5666 27.3004C14.6305 26.7974 14.5088 26.2884 14.2243 25.8687C13.9397 25.4491 13.5119 25.1476 13.0209 25.0208V24.1666H22.3958V25.0208C21.9049 25.1476 21.477 25.4491 21.1925 25.8687C20.9079 26.2884 20.7862 26.7974 20.8501 27.3004C20.914 27.8034 21.1592 28.2658 21.5396 28.601C21.9201 28.9362 22.4097 29.1211 22.9167 29.1211C23.4238 29.1211 23.9134 28.9362 24.2939 28.601C24.6743 28.2658 24.9195 27.8034 24.9834 27.3004C25.0473 26.7974 24.9256 26.2884 24.641 25.8687C24.3565 25.4491 23.9286 25.1476 23.4377 25.0208Z" fill="#777777"/>
</svg>
