<?xml version="1.0" encoding="UTF-8"?>
<svg id="Layer_1" data-name="Layer 1" xmlns="http://www.w3.org/2000/svg" viewBox="0 0 1954.34 2000">
  <defs>
    <style>
      .cls-1 {
        fill: #ff2722;
        stroke-width: 0px;
      }
    </style>
  </defs>
  <path class="cls-1" d="m1488.58,671.23h0c0-95.83-77.69-173.52-173.52-173.52h-703.2c-70.61,0-127.85,57.24-127.85,127.85v707.76c0,95.83,77.69,173.52,173.52,173.52h0c95.83,0,173.52-77.69,173.52-173.52v-222.65l889.32,889.31H438.36C196.26,2000,0,1803.74,0,1561.64V438.36C0,196.26,196.26,0,438.36,0h1077.63c242.1,0,438.36,196.26,438.36,438.36v420.09c0,242.1-196.26,438.36-438.36,438.36h-8.04l-452.05-452.05h259.18c95.83,0,173.52-77.69,173.52-173.52Z"/>
</svg>